<?xml version="1.0" encoding="UTF-8" standalone="no"?>
<!DOCTYPE svg PUBLIC "-//W3C//DTD SVG 1.1//EN"
 "http://www.w3.org/Graphics/SVG/1.1/DTD/svg11.dtd">
<!-- Generated by graphviz version 2.40.1 (20161225.0304)
 -->
<!-- Title: %3 Pages: 1 -->
<svg width="293pt" height="268pt"
 viewBox="0.00 0.00 293.00 268.00" xmlns="http://www.w3.org/2000/svg" xmlns:xlink="http://www.w3.org/1999/xlink">
<g id="graph0" class="graph" transform="scale(1 1) rotate(0) translate(4 264)">
<title>%3</title>
<polygon fill="#ffffff" stroke="transparent" points="-4,4 -4,-264 289,-264 289,4 -4,4"/>
<g id="clust1" class="cluster">
<title>clusterContributors</title>
<polygon fill="none" stroke="#c0c0c0" points="8,-177 8,-252 277,-252 277,-177 8,-177"/>
<text text-anchor="middle" x="142.5" y="-236.8" font-family="Arial" font-size="14.00" fill="#c0c0c0">Contributors</text>
</g>
<g id="clust3" class="cluster">
<title>clusterUsers</title>
<polygon fill="none" stroke="#c0c0c0" points="48,-8 48,-83 228,-83 228,-8 48,-8"/>
<text text-anchor="middle" x="138" y="-15.8" font-family="Arial" font-size="14.00" fill="#c0c0c0">Users</text>
</g>
<!-- Dana -->
<g id="node1" class="node">
<title>Dana</title>
<ellipse fill="none" stroke="#000000" stroke-dasharray="5,2" cx="235" cy="-203" rx="33.5952" ry="18"/>
<text text-anchor="middle" x="235" y="-199.3" font-family="Arial" font-size="14.00" fill="#000000">Dana</text>
</g>
<!-- Organization -->
<g id="node4" class="node">
<title>Organization</title>
<polygon fill="none" stroke="#000000" points="224,-149 56,-149 56,-111 224,-111 224,-149"/>
<text text-anchor="middle" x="140" y="-133.8" font-family="Arial" font-size="14.00" fill="#000000">Organization</text>
<text text-anchor="middle" x="140" y="-118.8" font-family="Arial" font-size="14.00" fill="#000000">(Company, Foundation)</text>
</g>
<!-- Dana&#45;&gt;Organization -->
<g id="edge1" class="edge">
<title>Dana&#45;&gt;Organization</title>
<path fill="none" stroke="#000000" d="M215.3159,-187.8744C203.0495,-178.4485 186.9618,-166.0864 172.8056,-155.2085"/>
<polygon fill="#000000" stroke="#000000" points="174.7992,-152.3265 164.7373,-149.0087 170.5341,-157.877 174.7992,-152.3265"/>
</g>
<!-- Charles -->
<g id="node2" class="node">
<title>Charles</title>
<ellipse fill="none" stroke="#000000" cx="140" cy="-203" rx="43.5923" ry="18"/>
<text text-anchor="middle" x="140" y="-199.3" font-family="Arial" font-size="14.00" fill="#000000">Charles</text>
</g>
<!-- Charles&#45;&gt;Organization -->
<g id="edge2" class="edge">
<title>Charles&#45;&gt;Organization</title>
<path fill="none" stroke="#000000" d="M140,-184.9551C140,-177.2107 140,-167.9622 140,-159.2811"/>
<polygon fill="#000000" stroke="#000000" points="143.5001,-159.1128 140,-149.1128 136.5001,-159.1129 143.5001,-159.1128"/>
</g>
<!-- Cara -->
<g id="node3" class="node">
<title>Cara</title>
<ellipse fill="none" stroke="#000000" cx="47" cy="-203" rx="31.3957" ry="18"/>
<text text-anchor="middle" x="47" y="-199.3" font-family="Arial" font-size="14.00" fill="#000000">Cara</text>
</g>
<!-- Cara&#45;&gt;Organization -->
<g id="edge3" class="edge">
<title>Cara&#45;&gt;Organization</title>
<path fill="none" stroke="#000000" d="M65.8199,-188.2274C77.7993,-178.8242 93.6323,-166.3961 107.5934,-155.4374"/>
<polygon fill="#000000" stroke="#000000" points="109.8489,-158.1165 115.5539,-149.1888 105.5267,-152.6102 109.8489,-158.1165"/>
</g>
<!-- Una -->
<g id="node5" class="node">
<title>Una</title>
<ellipse fill="none" stroke="#000000" cx="191" cy="-57" rx="28.6953" ry="18"/>
<text text-anchor="middle" x="191" y="-53.3" font-family="Arial" font-size="14.00" fill="#000000">Una</text>
</g>
<!-- Organization&#45;&gt;Una -->
<g id="edge4" class="edge">
<title>Organization&#45;&gt;Una</title>
<path fill="none" stroke="#000000" d="M153.3996,-110.8201C159.5456,-102.0229 166.9125,-91.4782 173.4902,-82.063"/>
<polygon fill="#000000" stroke="#000000" points="176.3936,-84.0185 179.2516,-73.8164 170.6553,-80.0095 176.3936,-84.0185"/>
</g>
<!-- Ulysses -->
<g id="node6" class="node">
<title>Ulysses</title>
<ellipse fill="none" stroke="#000000" cx="100" cy="-57" rx="44.393" ry="18"/>
<text text-anchor="middle" x="100" y="-53.3" font-family="Arial" font-size="14.00" fill="#000000">Ulysses</text>
</g>
<!-- Organization&#45;&gt;Ulysses -->
<g id="edge5" class="edge">
<title>Organization&#45;&gt;Ulysses</title>
<path fill="none" stroke="#000000" d="M129.4905,-110.8201C124.9551,-102.543 119.5721,-92.719 114.6544,-83.7442"/>
<polygon fill="#000000" stroke="#000000" points="117.6279,-81.8873 109.7531,-74.7994 111.4891,-85.2511 117.6279,-81.8873"/>
</g>
</g>
</svg>
