<?xml version="1.0" encoding="UTF-8" standalone="no"?>
<!DOCTYPE svg PUBLIC "-//W3C//DTD SVG 1.1//EN"
 "http://www.w3.org/Graphics/SVG/1.1/DTD/svg11.dtd">
<!-- Generated by graphviz version 2.40.1 (20161225.0304)
 -->
<!-- Title: %3 Pages: 1 -->
<svg width="293pt" height="194pt"
 viewBox="0.00 0.00 293.00 194.00" xmlns="http://www.w3.org/2000/svg" xmlns:xlink="http://www.w3.org/1999/xlink">
<g id="graph0" class="graph" transform="scale(1 1) rotate(0) translate(4 190)">
<title>%3</title>
<polygon fill="#ffffff" stroke="transparent" points="-4,4 -4,-190 289,-190 289,4 -4,4"/>
<g id="clust1" class="cluster">
<title>clusterContributors</title>
<polygon fill="none" stroke="#c0c0c0" points="8,-103 8,-178 277,-178 277,-103 8,-103"/>
<text text-anchor="middle" x="142.5" y="-162.8" font-family="Arial" font-size="14.00" fill="#c0c0c0">Contributors</text>
</g>
<g id="clust2" class="cluster">
<title>clusterUsers</title>
<polygon fill="none" stroke="#c0c0c0" points="45,-8 45,-83 225,-83 225,-8 45,-8"/>
<text text-anchor="middle" x="135" y="-15.8" font-family="Arial" font-size="14.00" fill="#c0c0c0">Users</text>
</g>
<!-- Charles -->
<g id="node1" class="node">
<title>Charles</title>
<ellipse fill="none" stroke="#000000" cx="140" cy="-129" rx="43.5923" ry="18"/>
<text text-anchor="middle" x="140" y="-125.3" font-family="Arial" font-size="14.00" fill="#000000">Charles</text>
</g>
<!-- Una -->
<g id="node4" class="node">
<title>Una</title>
<ellipse fill="none" stroke="#000000" cx="188" cy="-57" rx="28.6953" ry="18"/>
<text text-anchor="middle" x="188" y="-53.3" font-family="Arial" font-size="14.00" fill="#000000">Una</text>
</g>
<!-- Charles&#45;&gt;Una -->
<g id="edge1" class="edge">
<title>Charles&#45;&gt;Una</title>
<path fill="none" stroke="#000000" d="M151.6195,-111.5708C157.4824,-102.7763 164.7029,-91.9457 171.1616,-82.2577"/>
<polygon fill="#000000" stroke="#000000" points="174.1832,-84.0349 176.8181,-73.7729 168.3588,-80.152 174.1832,-84.0349"/>
</g>
<!-- Ulysses -->
<g id="node5" class="node">
<title>Ulysses</title>
<ellipse fill="none" stroke="#000000" cx="97" cy="-57" rx="44.393" ry="18"/>
<text text-anchor="middle" x="97" y="-53.3" font-family="Arial" font-size="14.00" fill="#000000">Ulysses</text>
</g>
<!-- Charles&#45;&gt;Ulysses -->
<g id="edge3" class="edge">
<title>Charles&#45;&gt;Ulysses</title>
<path fill="none" stroke="#000000" d="M129.3708,-111.2022C124.3719,-102.832 118.309,-92.6802 112.7879,-83.4356"/>
<polygon fill="#000000" stroke="#000000" points="115.6393,-81.3839 107.5069,-74.593 109.6295,-84.9731 115.6393,-81.3839"/>
</g>
<!-- Cara -->
<g id="node2" class="node">
<title>Cara</title>
<ellipse fill="none" stroke="#000000" cx="47" cy="-129" rx="31.3957" ry="18"/>
<text text-anchor="middle" x="47" y="-125.3" font-family="Arial" font-size="14.00" fill="#000000">Cara</text>
</g>
<!-- Cara&#45;&gt;Una -->
<g id="edge2" class="edge">
<title>Cara&#45;&gt;Una</title>
<path fill="none" stroke="#000000" d="M66.7345,-114.6723C73.0087,-110.533 80.112,-106.2586 87,-103 113.5553,-90.437 123.5953,-95.8764 150,-83 153.799,-81.1474 157.6498,-78.9509 161.3688,-76.6316"/>
<polygon fill="#000000" stroke="#000000" points="163.3158,-79.5403 169.7214,-71.1012 159.4512,-73.7037 163.3158,-79.5403"/>
</g>
<!-- Cara&#45;&gt;Ulysses -->
<g id="edge4" class="edge">
<title>Cara&#45;&gt;Ulysses</title>
<path fill="none" stroke="#000000" d="M58.8493,-111.937C64.8632,-103.277 72.2964,-92.5731 78.9995,-82.9207"/>
<polygon fill="#000000" stroke="#000000" points="82.0592,-84.6508 84.8884,-74.4407 76.3096,-80.658 82.0592,-84.6508"/>
</g>
<!-- Dana -->
<g id="node3" class="node">
<title>Dana</title>
<ellipse fill="none" stroke="#000000" stroke-dasharray="5,2" cx="235" cy="-129" rx="33.5952" ry="18"/>
<text text-anchor="middle" x="235" y="-125.3" font-family="Arial" font-size="14.00" fill="#000000">Dana</text>
</g>
<!-- Dana&#45;&gt;Una -->
<g id="edge5" class="edge">
<title>Dana&#45;&gt;Una</title>
<path fill="none" stroke="#000000" d="M223.8617,-111.937C218.1255,-103.1496 211.0156,-92.2579 204.6429,-82.4956"/>
<polygon fill="#000000" stroke="#000000" points="207.4555,-80.4011 199.0584,-73.9405 201.5938,-84.2275 207.4555,-80.4011"/>
</g>
<!-- Dana&#45;&gt;Ulysses -->
<g id="edge6" class="edge">
<title>Dana&#45;&gt;Ulysses</title>
<path fill="none" stroke="#000000" d="M213.4912,-115.0044C206.9999,-110.9668 199.7924,-106.6652 193,-103 174.4511,-92.9908 169.018,-92.0864 150,-83 144.9716,-80.5975 139.6882,-78.0427 134.485,-75.5085"/>
<polygon fill="#000000" stroke="#000000" points="135.7992,-72.2552 125.2782,-71.0068 132.7244,-78.5437 135.7992,-72.2552"/>
</g>
</g>
</svg>
