<?xml version="1.0" encoding="UTF-8" standalone="no"?>
<!DOCTYPE svg PUBLIC "-//W3C//DTD SVG 1.1//EN"
 "http://www.w3.org/Graphics/SVG/1.1/DTD/svg11.dtd">
<!-- Generated by graphviz version 2.40.1 (20161225.0304)
 -->
<!-- Title: %3 Pages: 1 -->
<svg width="333pt" height="224pt"
 viewBox="0.00 0.00 333.00 224.00" xmlns="http://www.w3.org/2000/svg" xmlns:xlink="http://www.w3.org/1999/xlink">
<g id="graph0" class="graph" transform="scale(1 1) rotate(0) translate(4 220)">
<title>%3</title>
<polygon fill="#ffffff" stroke="transparent" points="-4,4 -4,-220 329,-220 329,4 -4,4"/>
<g id="clust1" class="cluster">
<title>clusterContributors</title>
<polygon fill="none" stroke="#c0c0c0" points=".326,-42.7642 .326,-215.7642 182.326,-215.7642 182.326,-42.7642 .326,-42.7642"/>
<text text-anchor="middle" x="91.326" y="-200.5642" font-family="Arial" font-size="14.00" fill="#c0c0c0">Collaborative</text>
</g>
<g id="clust2" class="cluster">
<title>clusterUsers</title>
<polygon fill="none" stroke="#c0c0c0" points="208.4025,-.0321 208.4025,-206.0321 325.4025,-206.0321 325.4025,-.0321 208.4025,-.0321"/>
<text text-anchor="middle" x="266.9025" y="-190.8321" font-family="Arial" font-size="14.00" fill="#c0c0c0">Users</text>
</g>
<!-- Charles -->
<g id="node1" class="node">
<title>Charles</title>
<ellipse fill="none" stroke="#000000" cx="76.7934" cy="-69.1455" rx="43.5923" ry="18"/>
<text text-anchor="middle" x="76.7934" y="-65.4455" font-family="Arial" font-size="14.00" fill="#000000">Charles</text>
</g>
<!-- Cara -->
<g id="node2" class="node">
<title>Cara</title>
<ellipse fill="none" stroke="#000000" cx="142.9278" cy="-160.6405" rx="31.3957" ry="18"/>
<text text-anchor="middle" x="142.9278" y="-156.9405" font-family="Arial" font-size="14.00" fill="#000000">Cara</text>
</g>
<!-- Charles&#45;&gt;Cara -->
<g id="edge1" class="edge">
<title>Charles&#45;&gt;Cara</title>
<path fill="none" stroke="#000000" d="M95.5173,-95.0494C104.7384,-107.8065 115.8053,-123.1172 124.9268,-135.7365"/>
<polygon fill="#000000" stroke="#000000" points="98.2395,-92.8408 89.5448,-86.7866 92.5664,-96.9415 98.2395,-92.8408"/>
<polygon fill="#000000" stroke="#000000" points="122.1895,-137.9244 130.8843,-143.9785 127.8627,-133.8237 122.1895,-137.9244"/>
</g>
<!-- Ulysses -->
<g id="node5" class="node">
<title>Ulysses</title>
<ellipse fill="none" stroke="#000000" cx="260.6756" cy="-26.1835" rx="44.393" ry="18"/>
<text text-anchor="middle" x="260.6756" y="-22.4835" font-family="Arial" font-size="14.00" fill="#000000">Ulysses</text>
</g>
<!-- Charles&#45;&gt;Ulysses -->
<g id="edge4" class="edge">
<title>Charles&#45;&gt;Ulysses</title>
<path fill="none" stroke="#000000" d="M114.894,-60.2437C143.153,-53.6413 181.8896,-44.591 212.33,-37.4789"/>
<polygon fill="#000000" stroke="#000000" points="213.3666,-40.8311 222.3081,-35.1477 211.774,-34.0147 213.3666,-40.8311"/>
</g>
<!-- Dana -->
<g id="node3" class="node">
<title>Dana</title>
<ellipse fill="none" stroke="#000000" stroke-dasharray="5,2" cx="42.2701" cy="-166.6904" rx="33.5952" ry="18"/>
<text text-anchor="middle" x="42.2701" y="-162.9904" font-family="Arial" font-size="14.00" fill="#000000">Dana</text>
</g>
<!-- Cara&#45;&gt;Dana -->
<g id="edge2" class="edge">
<title>Cara&#45;&gt;Dana</title>
<path fill="none" stroke="#000000" d="M101.5125,-163.1297C96.4697,-163.4328 91.3036,-163.7433 86.2255,-164.0485"/>
<polygon fill="#000000" stroke="#000000" points="101.8589,-166.6153 111.6309,-162.5215 101.4388,-159.6279 101.8589,-166.6153"/>
<polygon fill="#000000" stroke="#000000" points="85.7652,-160.5698 75.9933,-164.6635 86.1853,-167.5571 85.7652,-160.5698"/>
</g>
<!-- Una -->
<g id="node4" class="node">
<title>Una</title>
<ellipse fill="none" stroke="#000000" cx="288.7063" cy="-157.4302" rx="28.6953" ry="18"/>
<text text-anchor="middle" x="288.7063" y="-153.7302" font-family="Arial" font-size="14.00" fill="#000000">Una</text>
</g>
<!-- Cara&#45;&gt;Una -->
<g id="edge5" class="edge">
<title>Cara&#45;&gt;Una</title>
<path fill="none" stroke="#000000" d="M174.201,-159.9518C196.3555,-159.4639 226.2239,-158.8062 249.9003,-158.2848"/>
<polygon fill="#000000" stroke="#000000" points="250.0391,-161.7827 259.9595,-158.0633 249.8849,-154.7844 250.0391,-161.7827"/>
</g>
<!-- Dana&#45;&gt;Charles -->
<g id="edge3" class="edge">
<title>Dana&#45;&gt;Charles</title>
<path fill="none" stroke="#000000" d="M52.0441,-139.0741C56.7281,-125.8398 62.3243,-110.0276 67.0095,-96.7897"/>
<polygon fill="#000000" stroke="#000000" points="48.6393,-138.2044 48.6022,-148.7992 55.2382,-140.5399 48.6393,-138.2044"/>
<polygon fill="#000000" stroke="#000000" points="70.3475,-97.8484 70.3846,-87.2536 63.7486,-95.5129 70.3475,-97.8484"/>
</g>
</g>
</svg>
